<svg width="401" height="336" viewBox="0 0 401 336" fill="none" xmlns="http://www.w3.org/2000/svg">
<g clip-path="url(#clip0_15_555)">
<path d="M209.546 279.705L221.406 276.211L217.945 288.104L221.406 299.963L209.546 296.503L197.653 299.963L201.147 288.104L197.653 276.211L209.546 279.705Z" fill="#191A23" stroke="white" stroke-miterlimit="10"/>
</g>
<g clip-path="url(#clip1_15_555)">
<path d="M84.1877 221.068L105.396 232.623L84.1877 244.272L72.5859 265.433L60.9841 244.272L39.7761 232.623L60.9841 221.068L72.5859 199.813L84.1877 221.068Z" fill="#191A23" stroke="white" stroke-miterlimit="10"/>
</g>
<path d="M380.263 250.517C379.01 252.788 376.669 254.447 373.261 255.48C369.851 256.514 365.416 256.908 360.061 256.677C349.354 256.215 335.084 253.262 318.235 248.105C284.546 237.794 240.651 218.703 194.545 193.271C148.438 167.838 108.874 140.895 82.1812 117.9C68.8314 106.399 58.7216 95.9042 52.6193 87.0942C49.5676 82.6884 47.5347 78.7274 46.5902 75.2911C45.6463 71.8571 45.8001 68.9925 47.0528 66.7215C48.3055 64.4505 50.6464 62.7922 54.0545 61.7588C57.4649 60.7246 61.8997 60.3311 67.2542 60.5621C77.9612 61.024 92.2315 63.9767 109.08 69.1335C142.77 79.4448 186.664 98.5363 232.771 123.968C278.878 149.4 318.441 176.344 345.134 199.339C358.484 210.839 368.594 221.335 374.696 230.145C377.748 234.55 379.781 238.511 380.725 241.948C381.669 245.382 381.516 248.246 380.263 250.517Z" stroke="#191A23"/>
<path d="M366.632 275.228C365.379 277.499 363.038 279.157 359.63 280.19C356.22 281.224 351.785 281.618 346.431 281.387C335.724 280.925 321.453 277.972 304.605 272.816C270.915 262.504 227.02 243.413 180.914 217.981C134.807 192.549 95.2434 165.605 68.5503 142.61C55.2006 131.11 45.0907 120.614 38.9885 111.804C35.9368 107.399 33.9038 103.438 32.9593 100.001C32.0154 96.5673 32.1693 93.7027 33.4219 91.4317C34.6746 89.1607 37.0156 87.5024 40.4236 86.469C43.834 85.4348 48.2688 85.0413 53.6234 85.2723C64.3304 85.7342 78.6006 88.6869 95.4494 93.8437C129.139 104.155 173.033 123.246 219.14 148.679C265.247 174.111 304.811 201.054 331.504 224.049C344.853 235.55 354.963 246.045 361.065 254.855C364.117 259.261 366.15 263.222 367.095 266.658C368.038 270.092 367.885 272.957 366.632 275.228Z" stroke="#191A23"/>
<path d="M353.003 299.938C351.75 302.209 349.409 303.868 346.001 304.901C342.591 305.935 338.156 306.329 332.802 306.098C322.095 305.636 307.824 302.683 290.976 297.526C257.286 287.215 213.392 268.124 167.285 242.691C121.178 217.259 81.6145 190.316 54.9214 167.321C41.5717 155.82 31.4618 145.325 25.3596 136.515C22.3079 132.109 20.2749 128.148 19.3304 124.712C18.3865 121.278 18.5404 118.413 19.793 116.142C21.0457 113.871 23.3867 112.213 26.7947 111.18C30.2051 110.146 34.6399 109.752 39.9945 109.983C50.7015 110.445 64.9717 113.398 81.8205 118.554C115.51 128.866 159.405 147.957 205.511 173.389C251.618 198.821 291.182 225.765 317.875 248.76C331.224 260.26 341.334 270.756 347.437 279.566C350.488 283.971 352.521 287.932 353.466 291.369C354.41 294.803 354.256 297.667 353.003 299.938Z" stroke="#191A23"/>
<circle cx="88.6029" cy="58.6795" r="10.4437" fill="#B9FF66"/>
<circle cx="283.664" cy="281.366" r="6.73786" fill="#B9FF66"/>
<circle cx="54.9131" cy="31.728" r="15.834" fill="#191A23"/>
<path d="M206.159 246.726C201.911 248.178 197.057 245.301 195.369 240.313L169.092 163.325L184.446 158.073L210.749 235.166C212.438 240.102 210.38 245.275 206.159 246.726Z" fill="#191A23"/>
<path d="M203.863 247.676C202.623 247.676 201.357 247.386 200.143 246.779C197.69 245.565 195.738 243.295 194.788 240.497L168.511 163.509C168.406 163.219 168.564 162.876 168.88 162.77L184.235 157.518C184.393 157.465 184.551 157.465 184.683 157.545C184.815 157.624 184.921 157.729 184.974 157.888L211.277 234.981C213.044 240.207 210.828 245.723 206.317 247.28C205.552 247.544 204.708 247.676 203.863 247.676ZM169.83 163.694L195.922 240.128C196.766 242.635 198.508 244.694 200.671 245.75C202.412 246.594 204.285 246.753 205.974 246.172C209.878 244.826 211.778 239.97 210.195 235.351L184.077 158.811L169.83 163.694Z" fill="#191A23"/>
<path d="M181.728 91.6151L132.05 127.061L112.712 147.146L105.114 160.58L105.088 160.685C103.584 163.008 104.455 168.366 107.277 173.829C110.048 179.213 113.952 182.961 116.696 183.172L116.617 183.225L131.206 184.808L158.512 180.453L216.474 159.709L288.524 172.061L289.025 172.087C270.927 168.709 246.497 144.506 228.741 110.275C211.012 76.0697 205.367 42.2604 213.149 25.5801H213.123L182.124 90.7705L181.728 91.6151Z" fill="#B9FF66"/>
<path d="M300.999 170.597C318.806 161.346 315.362 119.407 293.309 76.9234C271.255 34.4398 238.941 7.49946 221.135 16.7505C203.329 26.0015 206.772 67.9407 228.826 110.424C250.88 152.908 283.193 179.848 300.999 170.597Z" fill="white"/>
<path d="M293.168 173.011C285.411 173.011 276.072 168.682 266.02 160.263C252.328 148.809 238.899 131.152 228.214 110.513C212.042 79.2634 205.367 47.2225 211.224 28.8794C213.177 22.7563 216.448 18.4806 220.907 16.1844C229.771 11.6449 242.25 15.4982 256.074 27.0583C269.767 38.5128 283.195 56.1696 293.88 76.8089C310.079 108.058 316.753 140.099 310.87 158.442C308.918 164.565 305.646 168.841 301.188 171.137C298.787 172.404 296.096 173.011 293.168 173.011ZM228.98 15.4982C226.262 15.4982 223.73 16.0525 221.461 17.2401C217.266 19.378 214.206 23.4425 212.359 29.2753C206.581 47.3544 213.229 79.0523 229.27 110.037C251.114 152.187 283.142 179.16 300.687 170.16C304.881 168.023 307.942 163.958 309.788 158.125C315.566 140.046 308.918 108.348 292.877 77.3631C273.856 40.677 247.157 15.4982 228.98 15.4982Z" fill="#191A23"/>
<path d="M293.168 173.011C285.411 173.011 276.072 168.682 266.02 160.263C252.328 148.809 238.899 131.152 228.214 110.512C212.042 79.2633 205.367 47.2224 211.224 28.8793C213.177 22.7562 216.448 18.4805 220.907 16.1843C226.843 13.1228 234.599 13.8882 243.332 18.3749C251.695 22.677 260.744 30.3045 269.556 40.413C269.767 40.6505 269.74 41.02 269.503 41.2312C269.265 41.4423 268.896 41.4159 268.685 41.1784C250.798 20.6447 232.699 11.46 221.461 17.24C217.266 19.3779 214.206 23.4424 212.359 29.2752C206.581 47.3543 213.229 79.0522 229.27 110.037C248.265 146.697 274.99 171.902 293.141 171.902C295.859 171.902 298.391 171.348 300.66 170.16C304.855 168.023 307.915 163.958 309.762 158.125C315.54 140.046 308.891 108.348 292.851 77.363C288.076 68.1255 282.694 59.4423 276.916 51.5508C276.731 51.2869 276.784 50.9174 277.048 50.7326C277.312 50.5479 277.681 50.6006 277.866 50.8646C283.696 58.8088 289.078 67.5449 293.906 76.8352C310.079 108.058 316.753 140.099 310.87 158.442C308.918 164.565 305.646 168.841 301.188 171.137C298.787 172.404 296.096 173.011 293.168 173.011Z" fill="#191A23"/>
<path d="M260.596 116.516C264.721 114.373 263.928 104.665 258.824 94.8335C253.72 85.0018 246.239 78.7689 242.114 80.912C237.989 83.0551 238.782 92.7627 243.886 102.594C248.99 112.426 256.471 118.659 260.596 116.516Z" fill="#B9FF66"/>
<path d="M258.791 117.533C254.253 117.533 247.921 111.674 243.357 102.832C239.558 95.4951 238.001 87.9467 239.4 83.5919C239.901 82.0611 240.719 80.979 241.853 80.3984C246.338 78.1022 254.015 84.3573 259.345 94.6241C263.144 101.961 264.7 109.51 263.302 113.865C262.801 115.395 261.983 116.477 260.848 117.058C260.215 117.375 259.529 117.533 258.791 117.533ZM243.911 81.0582C243.357 81.0582 242.829 81.1638 242.381 81.4013C241.51 81.85 240.877 82.6945 240.481 83.935C239.189 87.9995 240.692 95.2312 244.36 102.304C249.214 111.674 256.522 117.982 260.294 116.029C261.165 115.58 261.798 114.735 262.194 113.495C263.487 109.404 261.957 102.199 258.316 95.1256C254.042 86.9174 247.921 81.0582 243.911 81.0582Z" fill="#B9FF66"/>
<path d="M289.157 163.166C282.351 163.166 274.172 159.366 265.361 152.002C253.383 141.973 241.617 126.507 232.277 108.454C218.11 81.1108 212.279 53.0552 217.398 36.9819C219.112 31.5978 221.988 27.85 225.919 25.8177C234.942 21.199 248.212 26.5303 262.353 40.4394C262.59 40.6769 262.59 41.02 262.353 41.2575C262.116 41.4951 261.773 41.4951 261.535 41.2575C247.764 27.718 234.968 22.4394 226.447 26.847C222.806 28.7209 220.141 32.2312 218.506 37.325C213.467 53.1079 219.271 80.8205 233.306 107.926C249.901 139.993 273.249 162.005 289.131 162.005C291.505 162.005 293.695 161.503 295.7 160.501C299.341 158.627 302.006 155.116 303.641 150.023C308.68 134.24 302.876 106.527 288.841 79.4216C284.593 71.2399 279.844 63.5595 274.726 56.6182C274.542 56.3543 274.594 55.9848 274.858 55.8C275.122 55.6153 275.491 55.6681 275.676 55.932C280.847 62.9525 285.622 70.6592 289.896 78.8938C304.063 106.237 309.894 134.292 304.776 150.366C303.061 155.75 300.185 159.498 296.254 161.53C294.091 162.612 291.716 163.166 289.157 163.166Z" fill="#191A23"/>
<path d="M131.233 185.363C131.207 185.363 131.181 185.363 131.181 185.363L116.591 183.779C116.512 183.779 116.433 183.753 116.354 183.7C113.346 183.225 109.547 179.424 106.777 174.093C103.822 168.471 102.952 162.982 104.561 160.395L104.587 160.316L112.185 146.856C112.212 146.803 112.238 146.776 112.265 146.75L131.603 126.665C131.629 126.639 131.656 126.612 131.682 126.586L181.228 91.2194L212.57 25.3164C212.649 25.1844 212.755 25.0788 212.913 25.026C213.071 24.9733 213.23 24.9733 213.361 25.0524C213.652 25.1844 213.784 25.5275 213.652 25.8178C205.711 42.8412 211.99 76.6769 229.244 109.985C246.524 143.345 270.611 168.049 289.158 171.454C289.448 171.507 289.659 171.77 289.633 172.087C289.606 172.377 289.342 172.589 289.052 172.615L288.551 172.589C288.525 172.589 288.498 172.589 288.472 172.589L216.554 160.263L158.724 180.955C158.697 180.955 158.645 180.982 158.618 180.982L131.313 185.336C131.286 185.363 131.26 185.363 131.233 185.363ZM117.013 182.671L131.233 184.201L158.407 179.847L216.343 159.128C216.448 159.102 216.527 159.075 216.633 159.102L281.375 170.187C263.884 162.507 243.437 139.835 228.267 110.539C213.203 81.454 206.476 51.9204 210.169 33.2606L182.257 91.8528C182.204 91.932 182.151 92.0112 182.072 92.0639L132.447 127.51L113.188 147.489L105.59 160.949C105.59 160.976 105.564 161.002 105.564 161.002C104.192 163.14 105.115 168.419 107.78 173.565C110.391 178.606 114.164 182.407 116.75 182.591C116.855 182.591 116.934 182.618 117.013 182.671Z" fill="#191A23"/>
<path d="M181.806 91.4039L213.122 25.5537H213.149C205.366 42.234 211.038 76.0433 228.741 110.248C246.496 144.506 270.926 168.709 289.077 172.034L288.576 172.008L216.631 159.682L214.969 159.392C206.606 157.914 195.446 147.04 187.452 131.521C179.247 115.606 177.796 99.7441 181.437 92.1957L181.806 91.4039Z" fill="white"/>
<path d="M289.077 172.615C289.051 172.615 289.077 172.615 289.077 172.615L288.549 172.589C288.523 172.589 288.497 172.589 288.47 172.589L216.526 160.263L214.864 159.973C206.026 158.416 194.813 147.093 186.925 131.812C177.981 114.445 177.533 98.9789 180.91 91.9584L181.305 91.1666L212.621 25.3427C212.7 25.2108 212.806 25.1052 212.964 25.0524C213.122 24.9996 213.281 24.9996 213.413 25.0788C213.703 25.2108 213.835 25.5539 213.703 25.8442C205.762 42.8676 212.041 76.7033 229.295 110.011C246.575 143.372 270.662 168.075 289.209 171.48C289.499 171.533 289.71 171.797 289.684 172.114C289.605 172.377 289.367 172.615 289.077 172.615ZM210.115 33.2606L182.334 91.668L181.939 92.4598C178.588 99.4275 179.564 114.999 187.954 131.257C195.684 146.248 206.58 157.333 215.075 158.812L216.737 159.102L281.347 170.187C263.856 162.507 243.409 139.835 228.239 110.539C213.175 81.454 206.448 51.9204 210.115 33.2606Z" fill="#191A23"/>
<path d="M130.441 185.284C130.415 185.284 130.388 185.284 130.388 185.284L116.564 183.806C116.485 183.806 116.406 183.779 116.327 183.726C113.319 183.251 109.52 179.451 106.75 174.119C103.821 168.471 102.951 162.982 104.56 160.395L104.586 160.316L112.185 146.856C112.343 146.565 112.686 146.486 112.976 146.644C113.266 146.803 113.345 147.146 113.187 147.436L105.589 160.949C105.589 160.976 105.563 161.002 105.563 161.002C104.191 163.14 105.114 168.419 107.779 173.565C110.391 178.606 114.163 182.407 116.749 182.591C116.828 182.591 116.933 182.618 116.986 182.671L130.494 184.122C130.81 184.149 131.048 184.439 130.995 184.756C130.969 185.046 130.731 185.284 130.441 185.284Z" fill="#191A23"/>
<path d="M131.364 184.703C126.879 184.386 120.6 178.026 116.036 169.237C111.208 159.92 110.074 150.287 113.029 146.856L105.14 160.58L105.088 160.686C103.584 163.008 104.455 168.366 107.277 173.829C110.048 179.213 113.952 182.961 116.696 183.172L116.617 183.225L131.364 184.703Z" fill="white"/>
<path d="M131.364 185.284C131.338 185.284 131.338 185.284 131.312 185.284C131.206 185.284 131.074 185.257 130.969 185.257L116.564 183.806C116.485 183.806 116.406 183.779 116.327 183.727C113.319 183.251 109.52 179.451 106.75 174.12C103.821 168.471 102.951 162.982 104.56 160.395L104.586 160.316L111.525 148.228C111.789 147.542 112.132 146.935 112.554 146.433C112.739 146.196 113.082 146.169 113.319 146.328C113.556 146.513 113.636 146.829 113.477 147.093L112.501 148.756C110.945 152.952 112.475 161.187 116.485 168.894C120.838 177.313 126.774 183.463 131.021 184.017L131.338 184.043C131.655 184.07 131.892 184.36 131.866 184.677C131.892 185.046 131.655 185.284 131.364 185.284ZM116.986 182.671L127.064 183.7C123.186 181.219 118.912 176.099 115.509 169.501C112.211 163.14 110.575 156.542 110.839 151.791L105.589 160.949C105.589 160.976 105.563 161.002 105.563 161.002C104.191 163.14 105.114 168.419 107.779 173.565C110.391 178.606 114.163 182.407 116.749 182.592C116.828 182.592 116.933 182.618 116.986 182.671Z" fill="#191A23"/>
<path d="M157.535 180.559L158.696 180.322C152.417 181.641 142.497 172.14 135.506 158.653C128.356 144.876 127.011 131.125 132.076 127.061L131.417 127.721L113.081 146.776C110.073 150.155 111.181 159.841 116.036 169.21C120.705 178.237 127.327 184.676 131.839 184.65L157.535 180.559Z" fill="#191A23"/>
<path d="M131.813 185.257C127.011 185.257 120.337 178.791 115.509 169.501C110.602 159.999 109.362 150.076 112.633 146.407L130.626 127.721C130.942 127.299 131.312 126.929 131.708 126.612C131.945 126.428 132.288 126.454 132.499 126.665C132.71 126.903 132.71 127.246 132.499 127.457L131.47 128.539C127.803 133.448 129.623 146.011 136.034 158.389C142.946 171.744 152.602 180.902 158.512 179.794L158.591 179.768C158.908 179.715 159.198 179.9 159.277 180.216C159.33 180.533 159.145 180.823 158.828 180.902C158.802 180.902 158.776 180.902 158.749 180.929L157.668 181.14H157.641L131.945 185.231C131.892 185.231 131.839 185.257 131.813 185.257ZM129.096 130.994L113.504 147.199C110.602 150.471 111.921 160.026 116.564 168.973C121.102 177.735 127.513 184.07 131.813 184.096L154.502 180.48C148.381 178.316 140.836 170.161 135.005 158.944C129.465 148.254 127.328 137.381 129.096 130.994Z" fill="#191A23"/>
<path d="M242.118 80.8997C237.976 83.0111 238.583 92.8028 243.859 102.568C252.697 118.905 259.741 116.979 260.559 116.688C260.586 116.688 260.586 116.715 260.559 116.715L245.389 128.935C240.931 122.68 236.683 115.712 232.779 108.19C229.059 100.985 225.919 93.8058 223.439 86.8381L242.118 80.8997Z" fill="#191A23"/>
<path d="M245.389 129.515C245.363 129.515 245.337 129.515 245.31 129.515C245.152 129.489 245.02 129.41 244.915 129.278C240.35 122.864 236.103 115.844 232.277 108.48C228.61 101.407 225.444 94.2016 222.912 87.0755C222.859 86.9172 222.859 86.7588 222.938 86.6268C223.017 86.4949 223.123 86.3893 223.281 86.3365L241.96 80.3981C242.25 80.3189 242.567 80.4509 242.672 80.7412C242.778 81.0316 242.672 81.3483 242.408 81.4802C241.511 81.9289 240.852 82.8263 240.456 84.1459C239.163 88.2896 240.746 95.6268 244.413 102.357C253.04 118.298 259.689 116.477 260.401 116.213C260.665 116.108 260.981 116.24 261.113 116.477C261.245 116.715 261.192 117.058 260.981 117.243L245.759 129.383C245.653 129.462 245.521 129.515 245.389 129.515ZM224.205 87.2075C226.711 94.096 229.771 101.064 233.306 107.926C237 115.052 241.116 121.835 245.521 128.09L258.686 117.48C255.679 117.348 250.006 115.105 243.358 102.832C239.506 95.7324 237.923 88.2368 239.322 83.7236C239.506 83.143 239.717 82.6415 239.981 82.1664L224.205 87.2075Z" fill="#191A23"/>
<defs>
<clipPath id="clip0_15_555">
<rect width="24.2563" height="24.2563" fill="white" transform="translate(197.419 275.976)"/>
</clipPath>
<clipPath id="clip1_15_555">
<rect width="47.3846" height="47.3846" fill="white" transform="translate(72.5859 199.164) rotate(45)"/>
</clipPath>
</defs>
</svg>
