<svg xmlns="http://www.w3.org/2000/svg" width="32" height="32" viewBox="0 0 24 24" fill="currentColor" fill-rule="evenodd" clip-rule="evenodd" class="mni mni-cross-block"><path fill-rule="evenodd" clip-rule="evenodd" class="fill-[#1c2a3a]" fill="currentColor" d="M15.884 4.927a.517.517 0 0 1 .736.003l2.4 2.4a.518.518 0 0 1 0 .74l-3.4 3.4a.75.75 0 0 0 1.06 1.06l3.4-3.4a2.017 2.017 0 0 0 0-2.86l-2.4-2.4a2.017 2.017 0 0 0-2.86 0l-3.308 3.408a.75.75 0 1 0 1.076 1.044l3.296-3.395ZM8.38 11.37a.75.75 0 0 1 0 1.06l-3.4 3.4a.518.518 0 0 0 0 .74l2.4 2.4a.518.518 0 0 0 .74 0l3.4-3.4a.75.75 0 1 1 1.06 1.06l-3.4 3.4a2.018 2.018 0 0 1-2.86 0l-2.4-2.4a2.018 2.018 0 0 1 0-2.86l3.4-3.4a.75.75 0 0 1 1.06 0Z"></path><path fill-rule="evenodd" clip-rule="evenodd" class="fill-[#1c2a3a]" fill="currentColor" d="M15.62 11.47a.75.75 0 0 1 1.06 0l3.4 3.4a2.017 2.017 0 0 1 0 2.86l-2.4 2.4a2.017 2.017 0 0 1-2.86 0l-3.4-3.4a.75.75 0 1 1 1.06-1.06l3.4 3.4a.518.518 0 0 0 .74 0l2.4-2.4a.518.518 0 0 0 0-.74l-3.4-3.4a.75.75 0 0 1 0-1.06Zm-7.5-6.54a.518.518 0 0 0-.74 0l-2.4 2.4a.518.518 0 0 0 0 .74l3.4 3.4a.75.75 0 0 1-1.06 1.06l-3.4-3.4a2.017 2.017 0 0 1 0-2.86l2.4-2.4a2.017 2.017 0 0 1 2.86 0l3.4 3.4a.75.75 0 0 1-1.06 1.06l-3.4-3.4Z"></path></svg>