<svg width="53" height="76" viewBox="0 0 53 76" fill="none" xmlns="http://www.w3.org/2000/svg">
<path d="M52.8135 0.27417L44.6396 13.4153L36.4028 26.808H16.5967L16.6596 26.6823L24.5191 14.0441L33.0703 0.27417H52.8135Z" fill="url(#paint0_linear_69_830)"/>
<path opacity="0.2" d="M50.55 0.27417L35.3339 24.796H19.992L35.3339 0.27417H33.1332L24.5191 14.0441L16.5967 26.6823H36.3399L44.6396 13.4153L52.8764 0.27417H50.55Z" fill="#424242"/>
<path d="M37.7233 19.1371H15.0877C12.3212 19.1371 10.0576 21.4006 10.0576 24.1672V34.2274C10.0576 35.6107 11.1894 36.7425 12.5727 36.7425C13.956 36.7425 15.7165 35.6107 15.7165 34.2274V27.9398C15.7165 27.2481 16.2824 26.6823 16.974 26.6823H35.837C36.5286 26.6823 37.0945 27.2481 37.0945 27.9398V34.1646C37.0945 35.4221 38.5406 36.491 39.7353 36.6796C39.9239 36.6796 40.0497 36.7425 40.2383 36.7425C41.6216 36.7425 42.7534 35.6107 42.7534 34.2274V24.1672C42.7534 21.4006 40.4898 19.1371 37.7233 19.1371Z" fill="#FDD835"/>
<path opacity="0.2" d="M37.7233 20.3946C39.7982 20.3946 41.4958 22.0923 41.4958 24.1672V34.2274C41.4958 34.9191 40.9299 35.485 40.2383 35.485C40.1754 35.485 40.0497 35.485 39.9868 35.485C39.2323 35.3592 38.352 34.6676 38.352 34.1646V27.9398C38.352 26.5565 37.2202 25.4247 35.837 25.4247H16.974C15.5907 25.4247 14.459 26.5565 14.459 27.9398V34.2274C14.459 34.7933 13.4529 35.485 12.5727 35.485C11.881 35.485 11.3151 34.9191 11.3151 34.2274V24.1672C11.3151 22.0923 13.0128 20.3946 15.0877 20.3946H37.7233ZM37.7233 19.1371H15.0877C12.3212 19.1371 10.0576 21.4006 10.0576 24.1672V34.2274C10.0576 35.6107 11.1894 36.7425 12.5727 36.7425C13.956 36.7425 15.7165 35.6107 15.7165 34.2274V27.9398C15.7165 27.2481 16.2824 26.6823 16.974 26.6823H35.837C36.5286 26.6823 37.0945 27.2481 37.0945 27.9398V34.1646C37.0945 35.4221 38.5406 36.491 39.7353 36.6796C39.9239 36.6796 40.0497 36.7425 40.2383 36.7425C41.6216 36.7425 42.7534 35.6107 42.7534 34.2274V24.1672C42.7534 21.4006 40.4898 19.1371 37.7233 19.1371Z" fill="#424242"/>
<path d="M36.4029 26.808H16.5968L0.186035 0.27417H19.9921L36.4029 26.808Z" fill="url(#paint1_linear_69_830)"/>
<path opacity="0.2" d="M19.8662 0.27417H17.6027L33.0074 24.796H17.6656L2.32372 0.27417H0.123047L16.5967 26.6823H36.3399L19.8662 0.27417Z" fill="#424242"/>
<path d="M26.4053 75.7259C39.601 75.7259 50.2983 65.0286 50.2983 51.8329C50.2983 38.6371 39.601 27.9398 26.4053 27.9398C13.2095 27.9398 2.51221 38.6371 2.51221 51.8329C2.51221 65.0286 13.2095 75.7259 26.4053 75.7259Z" fill="url(#paint2_radial_69_830)"/>
<path opacity="0.2" d="M26.4053 29.8261C38.5404 29.8261 48.412 39.6977 48.412 51.8329C48.412 63.968 38.5404 73.8396 26.4053 73.8396C14.2701 73.8396 4.3985 63.968 4.3985 51.8329C4.3985 39.6977 14.2701 29.8261 26.4053 29.8261ZM26.4053 27.9398C13.2012 27.9398 2.51221 38.6288 2.51221 51.8329C2.51221 65.0369 13.2012 75.7259 26.4053 75.7259C39.6093 75.7259 50.2983 65.0369 50.2983 51.8329C50.2983 38.6288 39.6093 27.9398 26.4053 27.9398Z" fill="#424242"/>
<path d="M19.1118 43.1559V47.4315L25.2737 45.5452V65.0998H30.4296V39.1318L19.1118 43.1559Z" fill="#FFA000"/>
<defs>
<linearGradient id="paint0_linear_69_830" x1="40.9805" y1="-0.710412" x2="31.5929" y2="20.609" gradientUnits="userSpaceOnUse">
<stop offset="0.1355" stop-color="#1E88E5"/>
<stop offset="0.938" stop-color="#1565C0"/>
</linearGradient>
<linearGradient id="paint1_linear_69_830" x1="13.0736" y1="1.8784" x2="23.9526" y2="26.1808" gradientUnits="userSpaceOnUse">
<stop offset="0.1355" stop-color="#64B5F6"/>
<stop offset="0.9462" stop-color="#2196F3"/>
</linearGradient>
<radialGradient id="paint2_radial_69_830" cx="0" cy="0" r="1" gradientUnits="userSpaceOnUse" gradientTransform="translate(13.2012 33.913) scale(45.6338)">
<stop offset="0.2972" stop-color="#FFEB3B"/>
<stop offset="0.9544" stop-color="#FBC02D"/>
</radialGradient>
</defs>
</svg>
