<svg width="53" height="76" viewBox="0 0 53 76" fill="none" xmlns="http://www.w3.org/2000/svg">
<path d="M52.8135 0.27417L44.6396 13.4153L36.4028 26.808H16.5967L16.6596 26.6823L24.5191 14.0441L33.0703 0.27417H52.8135Z" fill="url(#paint0_linear_69_842)"/>
<path opacity="0.2" d="M50.55 0.27417L35.3339 24.796H19.992L35.3339 0.27417H33.1332L24.5191 14.0441L16.5967 26.6823H36.3399L44.6396 13.4153L52.8764 0.27417H50.55Z" fill="#424242"/>
<path d="M37.7233 19.1371H15.0877C12.3212 19.1371 10.0576 21.4006 10.0576 24.1672V34.2274C10.0576 35.6107 11.1894 36.7425 12.5727 36.7425C13.956 36.7425 15.7165 35.6107 15.7165 34.2274V27.9398C15.7165 27.2481 16.2824 26.6823 16.974 26.6823H35.837C36.5286 26.6823 37.0945 27.2481 37.0945 27.9398V34.1646C37.0945 35.4221 38.5406 36.491 39.7353 36.6796C39.9239 36.6796 40.0497 36.7425 40.2383 36.7425C41.6216 36.7425 42.7534 35.6107 42.7534 34.2274V24.1672C42.7534 21.4006 40.4898 19.1371 37.7233 19.1371Z" fill="#BDBDBD"/>
<path opacity="0.2" d="M37.7233 20.3946C39.7982 20.3946 41.4958 22.0923 41.4958 24.1672V34.2274C41.4958 34.9191 40.9299 35.485 40.2383 35.485C40.1754 35.485 40.0497 35.485 39.9868 35.485C39.2323 35.3592 38.352 34.6676 38.352 34.1646V27.9398C38.352 26.5565 37.2202 25.4247 35.837 25.4247H16.974C15.5907 25.4247 14.459 26.5565 14.459 27.9398V34.2274C14.459 34.7933 13.4529 35.485 12.5727 35.485C11.881 35.485 11.3151 34.9191 11.3151 34.2274V24.1672C11.3151 22.0923 13.0128 20.3946 15.0877 20.3946H37.7233ZM37.7233 19.1371H15.0877C12.3212 19.1371 10.0576 21.4006 10.0576 24.1672V34.2274C10.0576 35.6107 11.1894 36.7425 12.5727 36.7425C13.956 36.7425 15.7165 35.6107 15.7165 34.2274V27.9398C15.7165 27.2481 16.2824 26.6823 16.974 26.6823H35.837C36.5286 26.6823 37.0945 27.2481 37.0945 27.9398V34.1646C37.0945 35.4221 38.5406 36.491 39.7353 36.6796C39.9239 36.6796 40.0497 36.7425 40.2383 36.7425C41.6216 36.7425 42.7534 35.6107 42.7534 34.2274V24.1672C42.7534 21.4006 40.4898 19.1371 37.7233 19.1371Z" fill="#424242"/>
<path d="M36.4029 26.808H16.5968L8.73723 14.0441L0.186035 0.27417H19.9921L28.9206 14.7358L36.34 26.6823L36.4029 26.808Z" fill="url(#paint1_linear_69_842)"/>
<path opacity="0.2" d="M28.9205 14.7358L19.8662 0.27417H17.6027L33.0074 24.796H17.6656L2.32372 0.27417H0.123047L8.73712 14.0441L16.5967 26.6823H36.3399L28.9205 14.7358Z" fill="#424242"/>
<path d="M26.4053 75.7259C39.601 75.7259 50.2983 65.0286 50.2983 51.8329C50.2983 38.6371 39.601 27.9398 26.4053 27.9398C13.2095 27.9398 2.51221 38.6371 2.51221 51.8329C2.51221 65.0286 13.2095 75.7259 26.4053 75.7259Z" fill="url(#paint2_radial_69_842)"/>
<path opacity="0.2" d="M26.4053 29.8261C38.5404 29.8261 48.412 39.6977 48.412 51.8329C48.412 63.968 38.5404 73.8396 26.4053 73.8396C14.2701 73.8396 4.3985 63.968 4.3985 51.8329C4.3985 39.6977 14.2701 29.8261 26.4053 29.8261ZM26.4053 27.9398C13.2012 27.9398 2.51221 38.6288 2.51221 51.8329C2.51221 65.0369 13.2012 75.7259 26.4053 75.7259C39.6093 75.7259 50.2983 65.0369 50.2983 51.8329C50.2983 38.6288 39.6093 27.9398 26.4053 27.9398Z" fill="#424242"/>
<path d="M17.98 46.8657C17.98 46.8657 17.9171 38.566 26.8456 38.566C35.774 38.566 34.8938 46.2998 34.8938 46.2998C34.9566 50.9527 28.166 56.2343 25.0222 60.0069H35.8369V64.1567H18.5459V60.6357C21.3753 57.4918 29.8636 49.5065 29.8636 46.9286C29.8636 46.9286 30.5553 42.653 26.7198 42.653C22.8844 42.653 23.073 46.8657 23.073 46.8657H17.98Z" fill="#757575"/>
<defs>
<linearGradient id="paint0_linear_69_842" x1="42.5166" y1="-0.45067" x2="31.6376" y2="19.0264" gradientUnits="userSpaceOnUse">
<stop offset="0.1355" stop-color="#1E88E5"/>
<stop offset="0.938" stop-color="#1565C0"/>
</linearGradient>
<linearGradient id="paint1_linear_69_842" x1="11.5846" y1="1.00901" x2="25.4466" y2="26.8907" gradientUnits="userSpaceOnUse">
<stop offset="0.1355" stop-color="#64B5F6"/>
<stop offset="0.9462" stop-color="#2196F3"/>
</linearGradient>
<radialGradient id="paint2_radial_69_842" cx="0" cy="0" r="1" gradientUnits="userSpaceOnUse" gradientTransform="translate(13.2012 37.5284) scale(43.6941)">
<stop offset="0.2835" stop-color="#EEEEEE"/>
<stop offset="1" stop-color="#BDBDBD"/>
</radialGradient>
</defs>
</svg>
