<svg width="48" height="48" viewBox="0 0 48 48" fill="none" xmlns="http://www.w3.org/2000/svg">
<path d="M35.3 12.7C33.8197 11.2099 32.0591 10.0274 30.1197 9.22077C28.1803 8.41412 26.1005 7.99923 24 8C15.16 8 8.02002 15.16 8.02002 24C8.02002 32.84 15.16 40 24 40C31.46 40 37.68 34.9 39.46 28H35.3C34.4761 30.339 32.9467 32.3648 30.9227 33.7977C28.8987 35.2306 26.4799 36.0001 24 36C17.38 36 12 30.62 12 24C12 17.38 17.38 12 24 12C27.32 12 30.28 13.38 32.44 15.56L26 22H40V8L35.3 12.7Z" fill="#191A23"/>
</svg>
