<svg width="48" height="48" viewBox="0 0 48 48" fill="none" xmlns="http://www.w3.org/2000/svg">
<path fill-rule="evenodd" clip-rule="evenodd" d="M22.2 9.12397L6.20002 36.924C5.40002 38.324 6.40002 39.924 8.00002 39.924H40C41.6 39.924 42.6 38.324 41.8 36.924L25.8 9.12397C24.8 7.72397 23 7.72397 22.2 9.12397Z" fill="#F2656B"/>
<path fill-rule="evenodd" clip-rule="evenodd" d="M23.926 6.57397C25.134 6.57397 26.27 7.20197 27.02 8.25397L27.064 8.31397L43.104 36.18C44.516 38.652 42.668 41.424 40 41.424H8.00001C5.33201 41.424 3.48601 38.652 4.89801 36.18L4.90001 36.176L20.898 8.37997C21.558 7.22597 22.698 6.57397 23.926 6.57397ZM23.926 9.57398C23.804 9.57398 23.644 9.62197 23.502 9.86997L23.5 9.87397L7.50201 37.67C7.37801 37.886 7.41001 38.054 7.48201 38.17C7.55801 38.296 7.72201 38.424 8.00001 38.424H40C40.278 38.424 40.44 38.296 40.52 38.17C40.59 38.054 40.62 37.888 40.5 37.67L24.54 9.94797C24.302 9.64197 24.056 9.57398 23.922 9.57398H23.926Z" fill="#F2656B"/>
<path fill-rule="evenodd" clip-rule="evenodd" d="M23.9999 29.326C23.1999 29.326 22.3999 28.726 22.3999 27.726V17.726C22.3999 16.926 22.9999 16.126 23.9999 16.126C24.9999 16.126 25.5999 16.726 25.5999 17.726V27.726C25.3999 28.726 24.7999 29.326 23.9999 29.326ZM23.9999 35.324C23.7999 35.324 23.5999 35.324 23.3999 35.124C23.1999 35.124 22.9999 34.924 22.9999 34.724C22.5999 34.724 22.3999 34.324 22.3999 33.924C22.3999 33.724 22.3999 33.524 22.5999 33.324C22.5999 33.124 22.7999 32.924 22.9999 32.924C22.9999 32.724 23.1999 32.524 23.3999 32.524C23.9999 32.324 24.5999 32.324 24.9999 32.924L25.3999 33.324C25.3999 33.524 25.5999 33.724 25.5999 33.924C25.5999 34.324 25.3999 34.724 25.1999 34.924C24.5999 35.324 24.3999 35.324 23.9999 35.324Z" fill="white"/>
</svg>
